<svg width="62" height="62" viewBox="0 0 62 62" fill="none" xmlns="http://www.w3.org/2000/svg">
<g clip-path="url(#clip0_150_219)">
<path d="M34.4206 30.2092L32.0089 26.3502C31.6341 25.7508 30.6437 25.7508 30.2688 26.3502L27.8572 30.2092C27.0995 31.4201 27.0614 32.8885 27.7529 34.1373C28.4454 35.3862 29.7105 36.132 31.1388 36.132C32.5672 36.132 33.8321 35.3862 34.5248 34.1373C35.2164 32.8885 35.1784 31.4201 34.4206 30.2092ZM32.7297 33.1421C32.404 33.7295 31.8096 34.0793 31.1391 34.0793C30.4686 34.0793 29.8742 33.7295 29.5484 33.1421C29.2237 32.5558 29.2417 31.8662 29.5976 31.2978L31.1392 28.831L32.6808 31.2978C33.0364 31.866 33.0545 32.5556 32.7297 33.1421Z" fill="#454545"/>
<path d="M47.5973 4.86327C47.5973 3.62031 47.1132 2.45061 46.2341 1.57163C44.4189 -0.241621 41.467 -0.242647 39.6538 1.56868L36.2741 4.9187L34.9438 3.58836L33.4925 5.03968L35.5452 7.09247L35.846 7.3932L30.4133 12.8258C30.2208 13.0182 30.1125 13.2788 30.1125 13.5514V16.6306C30.1125 17.1979 30.5716 17.657 31.1389 17.657H34.2181C34.4908 17.657 34.7513 17.5487 34.9438 17.3563L40.3765 11.9236L40.6772 12.2243L42.73 14.2771L44.1814 12.8256L42.8575 11.5017L46.2342 8.15478C47.1132 7.27683 47.5973 6.10713 47.5973 4.86327ZM33.7932 15.6042H32.1653V13.9764L37.2973 8.84439L38.9252 10.4722L33.7932 15.6042ZM44.7857 6.70051L41.4059 10.0503L41.1023 9.74659L38.0231 6.66741L37.7254 6.36976L41.1023 3.02295C42.1166 2.00862 43.7684 2.00862 44.7829 3.02295C45.274 3.5151 45.5447 4.16866 45.5447 4.86327C45.5445 5.55878 45.2739 6.21233 44.7857 6.70051Z" fill="#454545"/>
<path d="M61.9247 30.9228C61.8806 30.5249 61.609 30.1891 61.2291 30.0629C60.8302 29.9296 51.3751 26.8654 44.8509 32.3001C42.0272 34.6537 40.9947 37.412 40.7347 39.8208L39.3501 36.926V25.6927C40.545 25.2687 41.4029 24.1271 41.4029 22.7889C41.4029 21.091 40.0216 19.7098 38.3237 19.7098H23.9542C22.2563 19.7098 20.8751 21.091 20.8751 22.7889C20.8751 24.1271 21.7331 25.2687 22.9278 25.6927V36.926L22.4275 37.9722C22.4995 34.96 21.904 31.4962 19.6572 28.351C14.3138 20.8695 2.97337 19.7579 2.49327 19.7139C1.99008 19.6658 1.54104 19.9865 1.40979 20.4666C1.28046 20.9417 -1.72648 32.187 1.45687 39.6152C4.76455 47.3332 15.2961 47.4225 15.7432 47.4225C16.1131 47.4225 16.4539 47.224 16.6363 46.9022C16.8188 46.5794 16.8138 46.1845 16.6232 45.8678L13.5441 40.7358C13.4247 40.5373 13.2414 40.384 13.0248 40.3028L8.39798 38.5678L10.7796 38.1708C11.0933 38.1188 11.365 37.9243 11.5153 37.6446C11.6655 37.3649 11.6777 37.0322 11.5494 36.7415L9.15482 31.355L10.9962 32.8283C11.4042 33.1531 11.9934 33.123 12.3633 32.7521L13.6904 31.425V37.1584C13.6904 37.3509 13.7446 37.5394 13.8468 37.7027L18.7807 45.5969L14.5485 54.4457C13.7837 56.0455 13.892 57.8958 14.8372 59.3963C15.7824 60.8958 17.4052 61.7919 19.1783 61.7919H43.1C44.8731 61.7919 46.496 60.8958 47.4412 59.3963C48.3864 57.8958 48.4946 56.0455 47.7298 54.4457L43.5492 45.7048L47.2578 42.0288C47.3722 41.9155 47.4584 41.7772 47.5084 41.6249L48.5879 38.3874L48.641 38.5457C48.7312 38.8173 48.9318 39.0399 49.1944 39.1572C49.456 39.2745 49.7567 39.2776 50.0183 39.1643L52.864 37.9454L45.7755 45.7416C45.569 45.9691 45.4758 46.2769 45.5199 46.5806C45.564 46.8843 45.7415 47.1519 46.004 47.3104C46.9221 47.8656 48.5248 48.4411 50.4113 48.4411C52.2696 48.4411 54.4046 47.8818 56.4303 46.1948C62.9371 40.7708 61.9689 31.3228 61.9247 30.9228ZM15.7431 36.8636V28.9472C15.7431 28.5323 15.4936 28.1574 15.1096 27.9989C14.7257 27.8385 14.2846 27.9277 13.9909 28.2214L11.5612 30.6511L7.14694 27.1189C6.77705 26.8242 6.25385 26.8192 5.87793 27.1079C5.50407 27.3976 5.37474 27.9047 5.56719 28.3377L9.13454 36.3635L4.2842 37.1724C3.82617 37.2486 3.4763 37.6235 3.43127 38.0855C3.38623 38.5475 3.65784 38.9826 4.09175 39.146L11.9682 42.099L13.8395 45.2183C10.8916 44.8364 5.3537 43.4994 3.343 38.8073C0.920327 33.1541 2.55717 24.5992 3.17967 21.8729C5.85394 22.2799 13.9878 23.9457 17.9872 29.5438C21.3511 34.2537 20.4088 40.0322 19.5759 42.9962L15.7431 36.8636ZM45.7049 58.3016C45.1376 59.2018 44.1633 59.7389 43.0998 59.7389H19.1782C18.1147 59.7389 17.1404 59.2016 16.5731 58.3016C16.2562 57.7989 16.1136 57.2308 16.1141 56.6598H28.4187C28.7444 56.6598 29.0512 56.5044 29.2446 56.2428C29.4381 55.9802 29.4952 55.6413 29.399 55.3297C29.2476 54.8405 29.3188 54.3254 29.5975 53.8782L31.1391 51.4114L32.6766 53.8722C32.862 54.1719 32.9553 54.4956 32.9553 54.8324C32.9553 55.0068 32.9312 55.1662 32.8822 55.3206C32.782 55.6323 32.837 55.9731 33.0305 56.2387C33.224 56.5034 33.5316 56.6596 33.8594 56.6596H46.164C46.1643 57.2308 46.0218 57.7989 45.7049 58.3016ZM45.5307 54.607H35.0009C34.9628 53.9715 34.7654 53.349 34.4206 52.7898L32.1654 49.181V48.4486H33.1918C36.0214 48.4486 38.3237 46.1463 38.3237 43.3167C38.3237 42.7493 37.8647 42.2903 37.2973 42.2903H35.2446C34.0847 42.2903 33.0257 42.6916 32.1654 43.343V43.3167H31.7303C30.9361 41.5074 29.1324 40.2375 27.0334 40.2375H24.9806C24.4133 40.2375 23.9542 40.6965 23.9542 41.2639C23.9542 44.0935 26.2566 46.3958 29.0862 46.3958H30.1126V49.181L27.8574 52.7898C27.5095 53.3471 27.3131 53.9725 27.2771 54.607H16.7473L24.8804 37.6013C24.9466 37.463 24.9806 37.3116 24.9806 37.1583V25.868H28.0598V23.8152H23.9542C23.3879 23.8152 22.9278 23.3551 22.9278 22.7888C22.9278 22.2225 23.3879 21.7624 23.9542 21.7624H38.3237C38.89 21.7624 39.3501 22.2225 39.3501 22.7888C39.3501 23.3551 38.89 23.8152 38.3237 23.8152H34.2182V25.868H37.2973V37.1583C37.2973 37.3116 37.3315 37.463 37.3975 37.6013L45.5307 54.607ZM32.3408 46.3958C32.7648 45.201 33.9064 44.3431 35.2446 44.3431H36.0956C35.6715 45.5379 34.5299 46.3958 33.1918 46.3958H32.3408ZM29.9372 44.3431H29.0862C27.748 44.3431 26.6064 43.485 26.1824 42.2903H27.0334C28.3716 42.2903 29.5132 43.1483 29.9372 44.3431ZM55.1159 44.6167C52.4266 46.858 49.7524 46.5302 48.2609 46.0591L57.5586 35.8322C57.8833 35.4744 57.9154 34.9391 57.6348 34.5463C57.3541 34.1514 56.835 34.0081 56.3949 34.1985L50.2355 36.8376L49.5609 34.8168C49.4216 34.3978 49.0296 34.1152 48.5877 34.1152C48.1457 34.1152 47.7537 34.3978 47.6144 34.8168L45.6388 40.7436L42.9275 43.4309C42.4714 41.2337 42.2981 37.1001 46.166 33.8776C50.9 29.9303 57.7931 31.2766 59.9271 31.8258C60.0093 33.9639 59.8569 40.6665 55.1159 44.6167Z" fill="#454545"/>
<path d="M23.0342 44.9107L20.9816 49.016L22.8176 49.934L24.8702 45.8287L23.0342 44.9107Z" fill="#454545"/>
<path d="M19.955 51.0708L18.9287 53.1234L20.7647 54.0414L21.7911 51.9888L19.955 51.0708Z" fill="#454545"/>
<path d="M20.875 0.20813C17.4791 0.20813 14.7167 2.97054 14.7167 6.36648C14.7167 9.76243 17.4791 12.5248 20.875 12.5248C24.271 12.5248 27.0334 9.76243 27.0334 6.36648C27.0334 2.97054 24.271 0.20813 20.875 0.20813ZM20.875 10.4721C18.6108 10.4721 16.7695 8.63071 16.7695 6.36648C16.7695 4.10226 18.6108 2.26091 20.875 2.26091C23.1392 2.26091 24.9806 4.10226 24.9806 6.36648C24.9806 8.63071 23.1394 10.4721 20.875 10.4721Z" fill="#454545"/>
<path d="M50.6404 16.6305C48.3761 16.6305 46.5348 18.4718 46.5348 20.7361C46.5348 23.0003 48.3761 24.8416 50.6404 24.8416C52.9046 24.8416 54.7459 23.0003 54.7459 20.7361C54.7459 18.4718 52.9047 16.6305 50.6404 16.6305ZM50.6404 22.7888C49.5088 22.7888 48.5876 21.8677 48.5876 20.7361C48.5876 19.6045 49.5088 18.6833 50.6404 18.6833C51.772 18.6833 52.6931 19.6045 52.6931 20.7361C52.6931 21.8677 51.772 22.7888 50.6404 22.7888Z" fill="#454545"/>
<path d="M59.8779 2.26091V0.20813H57.8251V2.26091H55.7723V4.3137H57.8251V6.36648H59.8779V4.3137H61.9307V2.26091H59.8779Z" fill="#454545"/>
<path d="M19.8486 5.34021H17.7958V7.39299H19.8486V5.34021Z" fill="#454545"/>
<path d="M7.53184 8.41936V6.36658H5.47905V8.41936H3.42627V10.4721H5.47905V12.5249H7.53184V10.4721H9.58462V8.41936H7.53184Z" fill="#454545"/>
</g>
<defs>
<clipPath id="clip0_150_219">
<rect width="62" height="62" fill="white"/>
</clipPath>
</defs>
</svg>
