<svg width="62" height="62" viewBox="0 0 62 62" fill="none" xmlns="http://www.w3.org/2000/svg">
<g clip-path="url(#clip0_150_206)">
<path d="M29.9537 23.6402C30.3576 24.0238 31.0293 23.9463 31.3363 23.4832L37.3811 14.3605C37.6583 13.9423 37.5438 13.3785 37.1256 13.1013C36.708 12.8246 36.1441 12.939 35.8669 13.3567L30.4196 21.5778L27.3927 18.7038C27.029 18.3584 26.4543 18.3736 26.1085 18.7373C25.7632 19.1011 25.7783 19.6758 26.1421 20.0211C26.1416 20.0211 29.9504 23.6374 29.9537 23.6402Z" fill="#454545"/>
<path d="M30.5733 37.4927C30.7469 37.5722 30.939 37.6143 31.1301 37.6143H31.1376C31.332 37.6133 31.5269 37.5689 31.701 37.4856C45.5114 30.9177 47.8519 16.7469 48.2397 12.5602C48.3287 11.6042 47.7904 10.714 46.9006 10.345C44.1514 9.2036 42.2825 6.65117 42.0233 3.6839C41.9433 2.77049 41.1629 2.05859 40.2433 2.05859H40.2324L21.6266 2.16786C20.6886 2.17307 19.9265 2.88591 19.8546 3.82581C19.6257 6.79402 17.7842 9.3649 15.0487 10.5352C14.1679 10.9117 13.6429 11.8066 13.7432 12.7621C14.1802 16.9441 16.6868 31.087 30.5733 37.4927ZM15.763 12.2049C19.1172 10.7707 21.3768 7.62181 21.6639 3.9838L40.2163 3.875C40.546 7.50498 42.8378 10.625 46.2043 12.0223C46.3548 12.0853 46.446 12.2338 46.4314 12.3927C46.0672 16.3164 43.8879 29.5464 31.1267 35.7463C18.2922 29.6973 15.9597 16.4929 15.5492 12.5734C15.5326 12.4149 15.6187 12.2669 15.763 12.2049Z" fill="#454545"/>
<path d="M18.0307 17.2397C18.1404 17.6437 18.6527 18.0136 19.1456 17.8778C19.629 17.7444 19.9152 17.2473 19.7837 16.7634C19.5524 15.911 19.358 15.0468 19.2052 14.1906C21.6725 12.5828 23.5036 10.1832 24.4018 7.38051L37.5178 7.30341C38.4487 10.0947 40.3077 12.4735 42.7939 14.052C42.6515 14.9106 42.467 15.7776 42.2452 16.6333C42.1194 17.1191 42.4112 17.6148 42.8965 17.7407C43.3828 17.8665 43.8781 17.5746 44.0039 17.0888C44.264 16.0841 44.476 15.0643 44.633 14.0577C44.721 13.4953 44.4637 12.9423 43.9783 12.649C41.6624 11.2503 39.9506 9.05596 39.1582 6.47041C38.9799 5.88907 38.4317 5.48511 37.8234 5.48511H37.8149L24.083 5.56552C23.4709 5.56931 22.9232 5.98131 22.7515 6.56691C21.9899 9.16144 20.3036 11.3757 18.0042 12.8018C17.5222 13.1003 17.272 13.6561 17.3661 14.2181C17.5354 15.2223 17.7587 16.2388 18.0307 17.2397Z" fill="#454545"/>
<path d="M42.1681 19.9328C41.7045 19.7407 41.1738 19.9621 40.9822 20.4256C38.8834 25.5125 35.5609 29.38 31.1041 31.9253C26.6127 29.4291 23.242 25.5944 21.084 20.5236C20.8873 20.0624 20.3537 19.8476 19.8925 20.0439C19.4308 20.2402 19.2161 20.7738 19.4124 21.235C21.7676 26.7684 25.478 30.94 30.4404 33.6329C30.6495 33.7469 30.8784 33.8032 31.1069 33.8032C31.3411 33.8032 31.5747 33.7441 31.7876 33.6253C36.7127 30.8775 40.3711 26.6695 42.6614 21.1181C42.853 20.6546 42.6321 20.1239 42.1681 19.9328Z" fill="#454545"/>
<path d="M5.8272 48.5311C4.05573 48.5311 2.61395 49.9724 2.61395 51.7444C2.61395 53.5163 4.05573 54.9576 5.8272 54.9576C7.59914 54.9576 9.04091 53.5163 9.04091 51.7444C9.04091 49.9724 7.59961 48.5311 5.8272 48.5311ZM5.8272 53.1412C5.05711 53.1412 4.43036 52.5149 4.43036 51.7444C4.43036 50.9743 5.05711 50.3475 5.8272 50.3475C6.59775 50.3475 7.2245 50.9743 7.2245 51.7444C7.2245 52.5149 6.59775 53.1412 5.8272 53.1412Z" fill="#454545"/>
<path d="M61.3486 39.6397C60.1845 37.9292 57.8407 37.4761 56.1241 38.6293L44.2512 46.5756L41.7168 46.4332L41.652 45.7843C41.3994 43.2427 39.4567 41.2177 36.9279 40.8601C36.9118 40.8577 36.8962 40.8558 36.8801 40.8544L24.0868 39.7334C23.654 39.6657 22.2685 39.2679 18.4616 37.0844C16.4829 35.9496 14.2536 35.3092 11.9888 35.2221V32.8461C11.9888 31.6537 11.0191 30.684 9.82657 30.684H2.16219C0.970169 30.684 0 31.6541 0 32.8461V56.247C0 57.4391 0.970169 58.4092 2.16219 58.4092H9.82657C11.0186 58.4092 11.9888 57.4391 11.9888 56.247V55.6023L23.1719 59.8373C23.1965 59.8467 24.1047 60.1864 25.7745 60.0289C25.7792 60.0284 44.3563 57.3501 44.3563 57.3501C44.361 57.3497 44.3652 57.3487 44.37 57.3478C45.9574 57.0947 47.4545 56.4235 48.7 55.4079C48.7114 55.3984 48.7222 55.389 48.7331 55.3795L60.7342 44.5856C62.1485 43.3297 62.4129 41.2035 61.3486 39.6397ZM59.5237 43.2314L47.5354 54.0139C46.543 54.8185 45.352 55.3507 44.0899 55.5531L25.5219 58.23C25.5177 58.2304 25.5115 58.2314 25.5058 58.2323C25.503 58.2328 25.4997 58.2333 25.4969 58.2337C24.9415 58.3212 24.363 58.2844 23.7769 58.124L11.9888 53.6601V43.2881C11.9888 42.7862 11.582 42.3799 11.0805 42.3799C10.5787 42.3799 10.1723 42.7862 10.1723 43.2881V56.247C10.1723 56.4377 10.0172 56.5928 9.82657 56.5928H2.16219C1.97156 56.5928 1.81641 56.4377 1.81641 56.247V32.8461C1.81641 32.6555 1.97156 32.5004 2.16219 32.5004H9.82657C10.0172 32.5004 10.1723 32.6555 10.1723 32.8461V39.1856C10.1723 39.6875 10.5791 40.0938 11.0805 40.0938C11.5824 40.0938 11.9888 39.687 11.9888 39.1856V37.0404C13.9371 37.1265 15.8538 37.6828 17.5576 38.6605C22.1493 41.2939 23.4316 41.4755 23.8531 41.5351C23.8692 41.5375 23.8848 41.5389 23.9009 41.5408L36.6957 42.6618C38.3825 42.9111 39.6757 44.2659 39.8446 45.964L39.8928 46.4479L22.7633 47.5056C22.7514 47.5046 22.7396 47.5037 22.7292 47.5028C22.1739 47.4526 21.6725 47.1901 21.3163 46.7634C20.9951 46.3779 20.4223 46.3259 20.0372 46.6475C19.6517 46.9687 19.5997 47.5415 19.9213 47.9266C20.5878 48.726 21.5282 49.2042 22.5674 49.3121C23.1284 49.3707 40.8918 48.2061 40.8918 48.2061L44.4527 48.4062C44.6495 48.4176 44.8449 48.3637 45.0085 48.2539L57.1359 40.1378C58.0266 39.5394 59.2427 39.774 59.8468 40.6614C60.3988 41.4731 60.2616 42.5762 59.5237 43.2314Z" fill="#454545"/>
</g>
<defs>
<clipPath id="clip0_150_206">
<rect width="62" height="62" fill="white"/>
</clipPath>
</defs>
</svg>
